<svg width="42" height="42" viewBox="0 0 42 42" fill="none" xmlns="http://www.w3.org/2000/svg">
    <g clip-path="url(#clip0)">
        <path d="M30.6246 11.3115C29.9854 11.9537 29.9878 12.9924 30.6301 13.6316L36.3855 19.3594L1.64062 19.3594C0.734508 19.3594 0 20.0939 0 21C0 21.9061 0.734508 22.6406 1.64062 22.6406L36.3856 22.6406L30.63 28.3684C29.9878 29.0076 29.9853 30.0463 30.6245 30.6886C31.2638 31.3309 32.3025 31.3332 32.9447 30.6941L41.5173 22.1629C41.5179 22.1624 41.5183 22.1618 41.5188 22.1613C42.1594 21.5221 42.1614 20.48 41.5189 19.8387C41.5183 19.8382 41.5179 19.8376 41.5174 19.8371L32.9448 11.3059C32.3027 10.6669 31.2638 10.6691 30.6246 11.3115Z" fill="#DDDDDD"/>
    </g>
    <defs>
        <clipPath id="clip0">
            <rect width="42" height="42" fill="white" transform="translate(0 42) rotate(-90)"/>
        </clipPath>
    </defs>
</svg>
