<svg width="300" height="50" viewBox="0 0 300 50" fill="none" xmlns="http://www.w3.org/2000/svg">
    <path d="M283.63 9.65068C293.103 9.65068 300 16.2156 300 26.4909C300 36.7662 293.103 43.3313 283.63 43.3313C274.16 43.3313 267.267 36.7662 267.267 26.4909C267.267 16.2156 274.16 9.65068 283.63 9.65068ZM283.63 36.8121C289.106 36.8121 292.686 32.4648 292.686 26.4909C292.686 20.5152 289.106 16.1679 283.63 16.1679C278.159 16.1679 274.575 20.5152 274.575 26.4909C274.575 32.4648 278.159 36.8121 283.63 36.8121ZM83.8216 16.984H71.2809V23.5031H84.6331V30.024H71.2809V42.5152H64.2166V10.4648H87.363V13.3581C87.363 13.3581 87.6586 16.984 83.8216 16.984ZM225.354 26.1902L235.466 10.5689H227.12L224.605 14.6794C223.487 16.4988 221.943 19.1773 221.205 20.5505C220.456 19.1663 218.877 16.4198 217.803 14.6794L215.285 10.5689H206.939L217.007 26.1902L206.467 42.5477H211.336C213.032 42.5477 215.211 41.8262 216.282 40.1629L217.803 37.7028C218.916 35.889 220.497 33.2197 221.209 31.8447C221.96 33.2326 223.535 35.9716 224.605 37.7028L227.6 42.5477H235.944L225.354 26.1902Z" fill="black"/>
    <path fill-rule="evenodd" clip-rule="evenodd" d="M0 25.6944C0 38.2884 9.52256 48.6462 21.7549 49.979V1.41339C9.52256 2.74989 0 13.1096 0 25.6944ZM6.86426 25.6944C6.86426 31.9896 10.0953 37.5136 14.964 40.6732V10.7212C10.0953 13.8807 6.86426 19.4048 6.86426 25.6944Z" fill="black"/>
    <path d="M26.9426 1.32054V49.9285C39.2557 48.6691 48.8646 38.2689 48.8646 25.6236C48.8646 12.98 39.2557 2.57811 26.9426 1.32054Z" fill="#4BA744"/>
    <path d="M251.978 10.4655H240.074V42.5158H244.618C246.314 42.1964 246.927 41.0159 247.136 40.0999V31.6788H252.295C259.042 31.6788 264.157 28.5413 264.157 21.0253C264.157 13.4193 258.633 10.4655 251.978 10.4655ZM251.844 25.7012H247.136V16.4411H250.755C253.474 16.4411 256.824 17.7207 256.824 21.0253C256.824 24.0141 254.333 25.7012 251.844 25.7012ZM114.71 14.0377V10.4651H92.9351V42.5155H115.527V35.9964H99.9995V29.479H113.895V22.9618H99.9995V16.9842H111.198C113.974 16.9842 114.584 15.0897 114.71 14.0377ZM202.303 13.3577V10.468H202.396V10.4662H180.623V42.5148H203.213V35.9974H187.682V29.4784H201.585V22.9611H187.682V16.9835H198.772C202.598 16.9761 202.303 13.3577 202.303 13.3577ZM136.548 30.8431C141.936 29.9693 145.656 26.4682 145.656 20.5091C145.656 14.0101 140.13 10.4651 133.478 10.4651H121.569V42.6311H125.09V42.6256C128.16 42.6256 128.588 40.307 128.635 39.3762V31.1607H128.641L135.476 39.657L137.743 42.4035H146.232L136.548 30.8431ZM133.343 25.7027H128.635V16.4408H132.256C134.969 16.4408 138.321 17.7204 138.321 21.0267C138.321 24.0137 135.832 25.7027 133.343 25.7027ZM165.835 30.8431C171.225 29.9693 174.943 26.4682 174.943 20.5091C174.943 14.0101 169.42 10.4651 162.765 10.4651H150.86V42.6311H154.381V42.6256C157.451 42.6256 157.876 40.307 157.921 39.3762V31.1607H157.93L164.765 39.657L167.032 42.4035H175.521L165.835 30.8431ZM162.629 25.7027H157.921V16.4408H161.544C164.26 16.4408 167.61 17.7204 167.61 21.0267C167.61 24.0137 165.121 25.7027 162.629 25.7027Z" fill="black"/>
</svg>
