<svg width="200" height="200" viewBox="0 0 200 200" fill="none" xmlns="http://www.w3.org/2000/svg">
    <g clip-path="url(#clip0)">
        <path d="M172.435 0C172.435 0 63.7831 0 27.5658 0C14.2523 0 3.4209 10.8314 3.4209 24.1449C3.4209 37.4583 14.2523 48.2897 27.5658 48.2897H172.435C185.748 48.2897 196.58 37.4583 196.58 24.1449C196.58 10.8314 185.748 0 172.435 0Z" fill="#DEDEDE"/>
        <path d="M172.435 12.0723H27.5656C20.898 12.0723 15.4932 17.4771 15.4932 24.1447C15.4932 30.8123 20.898 36.2171 27.5656 36.2171H172.435C179.102 36.2171 184.507 30.8123 184.507 24.1447C184.507 17.4771 179.102 12.0723 172.435 12.0723Z" fill="#C4C4C4"/>
        <path d="M112.073 118.109L160.363 200C161.135 200 161.908 199.706 162.497 199.116L166.399 195.214L170.301 199.116C170.891 199.705 171.663 200 172.435 200V24.145H160.363L112.073 118.109Z" fill="#C4C4C4"/>
        <g filter="url(#filter0_d)">
            <path d="M27.5654 24.145V200C28.3377 200 29.1103 199.706 29.6994 199.116L33.6016 195.214L37.5039 199.116C38.6825 200.295 40.5932 200.295 41.7719 199.116L45.6741 195.214L49.5763 199.116C50.755 200.295 52.6656 200.295 53.8443 199.116L57.7465 195.214L61.6487 199.116C62.8274 200.295 64.7381 200.295 65.9167 199.116L69.819 195.214L73.7212 199.116C74.8998 200.295 76.8105 200.295 77.9892 199.116L81.8914 195.214L85.7936 199.116C86.9723 200.295 88.8829 200.295 90.0616 199.116L93.9638 195.214L97.866 199.116C99.0447 200.295 100.955 200.295 102.134 199.116L106.036 195.214L109.938 199.116C111.117 200.295 113.028 200.295 114.206 199.116L118.109 195.214L122.011 199.116C123.19 200.295 125.1 200.295 126.279 199.116L130.181 195.214L134.083 199.116C135.262 200.295 137.173 200.295 138.351 199.116L142.254 195.214L146.156 199.116C147.334 200.295 149.245 200.295 150.424 199.116L154.326 195.214L158.228 199.116C158.817 199.705 159.59 200 160.362 200V24.145H27.5654Z" fill="#F4F4F4"/>
        </g>
        <path d="M52 111H147V123H52V111Z" fill="#E9E9E9"/>
        <path d="M137 111H147V123H137V111Z" fill="black" fill-opacity="0.1"/>
        <path d="M86.08 96C85.8133 96 85.5733 95.9067 85.36 95.72C85.1733 95.5067 85.08 95.2667 85.08 95V75.96L79.6 80.16C79.36 80.3467 79.1067 80.4133 78.84 80.36C78.6 80.3067 78.3867 80.16 78.2 79.92L75.84 76.84C75.68 76.6 75.6133 76.3467 75.64 76.08C75.6933 75.7867 75.8533 75.56 76.12 75.4L85.32 68.28C85.48 68.1733 85.6267 68.1067 85.76 68.08C85.92 68.0267 86.0933 68 86.28 68H91.28C91.5733 68 91.8133 68.0933 92 68.28C92.1867 68.4667 92.28 68.7067 92.28 69V95C92.28 95.2667 92.1867 95.5067 92 95.72C91.8133 95.9067 91.5733 96 91.28 96H86.08ZM101.843 96C101.603 96 101.403 95.92 101.243 95.76C101.083 95.5733 101.003 95.36 101.003 95.12C101.003 94.9867 101.016 94.88 101.043 94.8C101.096 94.72 101.136 94.6533 101.163 94.6L106.803 86.88C106.429 86.96 106.043 87 105.643 87C104.443 86.92 103.269 86.6533 102.123 86.2C100.976 85.72 99.9361 85.08 99.0028 84.28C98.0961 83.4533 97.3761 82.48 96.8428 81.36C96.3095 80.24 96.0428 78.9867 96.0428 77.6C96.0428 76.32 96.2828 75.0933 96.7628 73.92C97.2428 72.72 97.9628 71.6533 98.9228 70.72C99.8828 69.76 101.069 69 102.483 68.44C103.923 67.88 105.589 67.6 107.483 67.6C109.403 67.6 111.083 67.8533 112.523 68.36C113.989 68.84 115.216 69.5333 116.203 70.44C117.189 71.32 117.936 72.36 118.443 73.56C118.949 74.7333 119.203 75.9867 119.203 77.32C119.203 78.5467 118.976 79.68 118.523 80.72C118.096 81.76 117.563 82.7467 116.923 83.68C116.309 84.5867 115.669 85.5067 115.003 86.44L108.603 95.2C108.496 95.3333 108.336 95.5067 108.123 95.72C107.909 95.9067 107.589 96 107.163 96H101.843ZM107.563 81.72C108.363 81.72 109.083 81.56 109.723 81.24C110.363 80.8933 110.869 80.4133 111.243 79.8C111.616 79.1867 111.803 78.44 111.803 77.56C111.803 76.68 111.616 75.9333 111.243 75.32C110.869 74.68 110.363 74.2 109.723 73.88C109.083 73.5333 108.363 73.36 107.563 73.36C106.789 73.36 106.083 73.5333 105.443 73.88C104.803 74.2 104.296 74.68 103.923 75.32C103.549 75.9333 103.363 76.68 103.363 77.56C103.363 78.44 103.549 79.1867 103.923 79.8C104.296 80.4133 104.803 80.8933 105.443 81.24C106.083 81.56 106.789 81.72 107.563 81.72Z" fill="#1E73D7"/>
        <path d="M72.4902 54H70.2197V45.1816H67.312V43.292H75.3979V45.1816H72.4902V54ZM82.0703 54L81.6382 52.8867H81.5796C81.2036 53.3604 80.8154 53.6899 80.415 53.8755C80.0195 54.0562 79.502 54.1465 78.8623 54.1465C78.0762 54.1465 77.4561 53.9219 77.002 53.4727C76.5527 53.0234 76.3281 52.3838 76.3281 51.5537C76.3281 50.6846 76.6309 50.0449 77.2363 49.6348C77.8467 49.2197 78.7646 48.9902 79.9902 48.9463L81.4111 48.9023V48.5435C81.4111 47.7134 80.9863 47.2983 80.1367 47.2983C79.4824 47.2983 78.7134 47.4961 77.8296 47.8916L77.0898 46.3828C78.0322 45.8896 79.0771 45.6431 80.2246 45.6431C81.3232 45.6431 82.1655 45.8823 82.7515 46.3608C83.3374 46.8394 83.6304 47.5669 83.6304 48.5435V54H82.0703ZM81.4111 50.2061L80.5469 50.2354C79.8975 50.2549 79.4141 50.3721 79.0967 50.5869C78.7793 50.8018 78.6206 51.1289 78.6206 51.5684C78.6206 52.1982 78.9819 52.5132 79.7046 52.5132C80.2222 52.5132 80.6348 52.3643 80.9424 52.0664C81.2549 51.7686 81.4111 51.373 81.4111 50.8799V50.2061ZM93.269 54H91.0352V47.4888H88.9771C88.8208 49.3198 88.6304 50.687 88.4058 51.5903C88.1812 52.4888 87.8809 53.1406 87.5049 53.5459C87.1338 53.9463 86.6455 54.1465 86.04 54.1465C85.5225 54.1465 85.0977 54.0684 84.7656 53.9121V52.125C85.0049 52.2227 85.2441 52.2715 85.4834 52.2715C85.7617 52.2715 85.9937 52.0713 86.1792 51.6709C86.3696 51.2705 86.5381 50.604 86.6846 49.6714C86.8359 48.7339 86.9653 47.4473 87.0728 45.8115H93.269V54ZM97.3999 49.8911C97.3999 50.7017 97.5317 51.3145 97.7954 51.7295C98.064 52.1445 98.4985 52.3521 99.0991 52.3521C99.6948 52.3521 100.122 52.147 100.381 51.7368C100.645 51.3218 100.776 50.7065 100.776 49.8911C100.776 49.0806 100.645 48.4727 100.381 48.0674C100.117 47.6621 99.6851 47.4595 99.0845 47.4595C98.4888 47.4595 98.0591 47.6621 97.7954 48.0674C97.5317 48.4678 97.3999 49.0757 97.3999 49.8911ZM103.062 49.8911C103.062 51.2241 102.71 52.2666 102.007 53.0186C101.304 53.7705 100.325 54.1465 99.0698 54.1465C98.2837 54.1465 97.5903 53.9756 96.9897 53.6338C96.3892 53.2871 95.9277 52.7915 95.6055 52.147C95.2832 51.5024 95.1221 50.7505 95.1221 49.8911C95.1221 48.5532 95.4712 47.5132 96.1694 46.771C96.8677 46.0288 97.8491 45.6577 99.1138 45.6577C99.8999 45.6577 100.593 45.8286 101.194 46.1704C101.794 46.5122 102.256 47.0029 102.578 47.6426C102.9 48.2822 103.062 49.0317 103.062 49.8911ZM107.141 45.8115V48.9609H110.261V45.8115H112.495V54H110.261V50.6235H107.141V54H104.907V45.8115H107.141ZM126.58 54H124.177L120.442 46.3315H120.339C120.457 47.5864 120.515 48.6069 120.515 49.3931V54H118.552V43.292H120.969L124.675 50.9092H124.807C124.69 49.7715 124.631 48.7876 124.631 47.9575V43.292H126.58V54ZM127.598 54V52.623H132.278V54H127.598ZM132.432 49.3198C132.432 50.1548 132.207 50.8091 131.758 51.2827C131.309 51.7563 130.698 51.9932 129.927 51.9932C129.175 51.9932 128.574 51.7515 128.125 51.2681C127.676 50.7847 127.451 50.1353 127.451 49.3198C127.451 48.4995 127.671 47.8525 128.11 47.3789C128.55 46.9053 129.165 46.6685 129.956 46.6685C130.708 46.6685 131.309 46.9126 131.758 47.4009C132.207 47.8843 132.432 48.5239 132.432 49.3198ZM128.931 49.3198C128.931 49.8081 129.009 50.1768 129.165 50.4258C129.326 50.6699 129.585 50.792 129.941 50.792C130.288 50.792 130.54 50.6699 130.696 50.4258C130.852 50.1768 130.93 49.8081 130.93 49.3198C130.93 48.8315 130.852 48.4678 130.696 48.2285C130.54 47.9844 130.288 47.8623 129.941 47.8623C129.585 47.8623 129.326 47.9844 129.165 48.2285C129.009 48.4678 128.931 48.8315 128.931 49.3198Z" fill="black"/>
        <rect x="52" y="133" width="5" height="50" fill="#D2D2D2"/>
        <rect x="92" y="133" width="5" height="50" fill="#D2D2D2"/>
        <rect x="62" y="133" width="5" height="50" fill="#D2D2D2"/>
        <rect x="102" y="133" width="5" height="50" fill="#D2D2D2"/>
        <rect x="72" y="133" width="5" height="50" fill="#D2D2D2"/>
        <rect x="112" y="133" width="5" height="50" fill="#D2D2D2"/>
        <rect x="82" y="133" width="5" height="50" fill="#D2D2D2"/>
        <rect x="122" y="133" width="5" height="50" fill="#D2D2D2"/>
        <rect x="132" y="133" width="5" height="50" fill="#D2D2D2"/>
        <rect x="142" y="133" width="5" height="50" fill="#D2D2D2"/>
    </g>
    <defs>
        <filter id="filter0_d" x="27.5654" y="23.145" width="132.797" height="176.855" filterUnits="userSpaceOnUse" color-interpolation-filters="sRGB">
            <feFlood flood-opacity="0" result="BackgroundImageFix"/>
            <feColorMatrix in="SourceAlpha" type="matrix" values="0 0 0 0 0 0 0 0 0 0 0 0 0 0 0 0 0 0 127 0"/>
            <feOffset dy="-1"/>
            <feColorMatrix type="matrix" values="0 0 0 0 0.745833 0 0 0 0 0.745833 0 0 0 0 0.745833 0 0 0 1 0"/>
            <feBlend mode="normal" in2="BackgroundImageFix" result="effect1_dropShadow"/>
            <feBlend mode="normal" in="SourceGraphic" in2="effect1_dropShadow" result="shape"/>
        </filter>
        <clipPath id="clip0">
            <rect width="200" height="200" fill="white"/>
        </clipPath>
    </defs>
</svg>