<svg width="46" height="46" viewBox="0 0 46 46" fill="none" xmlns="http://www.w3.org/2000/svg">
    <path d="M23 43C34.0457 43 43 34.0457 43 23C43 11.9543 34.0457 3 23 3C11.9543 3 3 11.9543 3 23C3 34.0457 11.9543 43 23 43Z" fill="#F0F0F0"/>
    <path d="M41.756 29.9564C42.56 27.7898 43 25.4463 43 22.9999C43 20.5535 42.56 18.2101 41.756 16.0435H4.24398C3.44008 18.2101 3 20.5535 3 22.9999C3 25.4463 3.44008 27.7898 4.24398 29.9564L23 31.6956L41.756 29.9564Z" fill="#0052B4"/>
    <path d="M23.0002 43.0001C31.5994 43.0001 38.9303 37.5726 41.7562 29.9565H4.24414C7.07 37.5726 14.4009 43.0001 23.0002 43.0001Z" fill="#D80027"/>
    <rect x="1.5" y="1.5" width="43" height="43" rx="21.5" stroke="#EFEFEF" stroke-width="3"/>
</svg>
