<svg width="46" height="46" viewBox="0 0 46 46" fill="none" xmlns="http://www.w3.org/2000/svg">
    <path d="M23 43C34.0457 43 43 34.0457 43 23C43 11.9543 34.0457 3 23 3C11.9543 3 3 11.9543 3 23C3 34.0457 11.9543 43 23 43Z" fill="#F0F0F0"/>
    <path d="M7.13484 10.8237C5.56383 12.8677 4.37922 15.2236 3.68945 17.7829H14.094L7.13484 10.8237Z" fill="#0052B4"/>
    <path d="M42.3116 17.7826C41.6218 15.2233 40.4371 12.8675 38.8662 10.8235L31.9072 17.7826H42.3116Z" fill="#0052B4"/>
    <path d="M3.68945 28.2175C4.3793 30.7767 5.56391 33.1326 7.13484 35.1765L14.0938 28.2175H3.68945Z" fill="#0052B4"/>
    <path d="M35.1768 7.13443C33.1328 5.56342 30.7771 4.37881 28.2178 3.68896V14.0934L35.1768 7.13443Z" fill="#0052B4"/>
    <path d="M10.8242 38.8656C12.8682 40.4367 15.2241 41.6213 17.7833 42.3111V31.9067L10.8242 38.8656Z" fill="#0052B4"/>
    <path d="M17.7832 3.68896C15.224 4.37881 12.8681 5.56342 10.8242 7.13436L17.7832 14.0933V3.68896Z" fill="#0052B4"/>
    <path d="M28.2178 42.3111C30.777 41.6213 33.1329 40.4367 35.1768 38.8657L28.2178 31.9067V42.3111Z" fill="#0052B4"/>
    <path d="M31.9072 28.2175L38.8662 35.1766C40.4371 33.1327 41.6218 30.7767 42.3116 28.2175H31.9072Z" fill="#0052B4"/>
    <path d="M42.8307 20.3913H25.6088H25.6087V3.1693C24.7548 3.05813 23.8841 3 23 3C22.1157 3 21.2452 3.05813 20.3913 3.1693V20.3912V20.3913H3.1693C3.05813 21.2452 3 22.1159 3 23C3 23.8843 3.05813 24.7548 3.1693 25.6087H20.3912H20.3913V42.8307C21.2452 42.9419 22.1157 43 23 43C23.8841 43 24.7548 42.942 25.6087 42.8307V25.6088V25.6087H42.8307C42.9419 24.7548 43 23.8843 43 23C43 22.1159 42.9419 21.2452 42.8307 20.3913Z" fill="#D80027"/>
    <path d="M28.2178 28.2174L37.1425 37.1421C37.5529 36.7317 37.9445 36.3028 38.3181 35.8581L30.6773 28.2173H28.2178V28.2174Z" fill="#D80027"/>
    <path d="M17.7822 28.2173H17.782L8.85742 37.1419C9.26773 37.5524 9.69672 37.9439 10.1414 38.3175L17.7822 30.6766V28.2173Z" fill="#D80027"/>
    <path d="M17.7829 17.7828V17.7827L8.85824 8.85791C8.44777 9.26822 8.05621 9.69721 7.68262 10.1419L15.3235 17.7828H17.7829V17.7828Z" fill="#D80027"/>
    <path d="M28.2178 17.7828L37.1425 8.85792C36.7322 8.44745 36.3032 8.05589 35.8586 7.68237L28.2178 15.3232V17.7828Z" fill="#D80027"/>
    <rect x="1.5" y="1.5" width="43" height="43" rx="21.5" stroke="#EFEFEF" stroke-width="3"/>
</svg>
